# xmcd
#
# Track frame offsets:
#	150
#	10459
#	21767
#	35524
#	50258
#	63506
#	77412
#	87850
#	112171
#	125608
#	141573
#
# Disc length: 2057 seconds
#
# Revision: 0
# Processed by: cddbd v1.4PL0 Copyright (c) Steve Scherf et al.
# Submitted via: EasyCDDAExtractor 4.6.9.1
#
DISCID=9408070b
DTITLE=Sylvie Rioux - A Chacun Sa Difference
DYEAR=1900
DGENRE=
TTITLE0=Chante Avec Moi
TTITLE1=Vas Vivre Ta vie
TTITLE2=A Chacun Sa Difference
TTITLE3=La Vie Est Fragile
TTITLE4=Tu Prends Ta Revanche
TTITLE5=Ce Soir C'est Terminer
TTITLE6=Je T'emmene Danser Du Country
TTITLE7=Parfois
TTITLE8=Peu A Peu
TTITLE9=Vous Dire Merci
TTITLE10=La Plus Belle Musique
EXTD=
EXTT0=
EXTT1=
EXTT2=
EXTT3=
EXTT4=
EXTT5=
EXTT6=
EXTT7=
EXTT8=
EXTT9=
EXTT10=
PLAYORDER=
